<svg xmlns="http://www.w3.org/2000/svg" version="1.1" xmlns:xlink="http://www.w3.org/1999/xlink" xmlns:svgjs="http://svgjs.dev/svgjs" width="1000" height="1125" viewBox="0 0 1000 1125"><g transform="matrix(1,0,0,1,0,0)"><svg viewBox="0 0 320 360" data-background-color="#111827" preserveAspectRatio="xMidYMid meet" height="1125" width="1000" xmlns="http://www.w3.org/2000/svg" xmlns:xlink="http://www.w3.org/1999/xlink"><g id="tight-bounds" transform="matrix(1,0,0,1,0,0)"><svg viewBox="0 0 320 360" height="360" width="320"><g><svg></svg></g><g><svg viewBox="0 0 320 360" height="360" width="320"><g><path d="M297.491 100.645c-12.426-21.51-112.674-79.355-137.491-79.355-24.817 0-125.028 57.845-137.491 79.355-11.591 20.02-11.591 138.726 0 158.746 12.463 21.474 112.674 79.319 137.491 79.319 24.817 0 125.064-57.845 137.491-79.355 11.591-20.02 11.591-138.69 0-158.71zM309.481 93.705c-14.461-24.998-119.469-86.295-149.481-86.295-30.012 0-135.02 61.297-149.481 86.295-14.025 24.199-14.025 148.391 0 172.59 14.461 24.998 119.469 86.295 149.481 86.295 30.012 0 135.02-61.297 149.481-86.259 14.025-24.235 14.025-148.427 0-172.626zM300.906 261.353c-12.753 22.055-115.472 81.317-140.906 81.318-25.434 0-128.153-59.298-140.906-81.354-11.881-20.529-11.881-142.178 0-162.707 12.753-22.019 115.472-81.281 140.906-81.281 25.434 0 128.153 59.298 140.906 81.318 11.881 20.529 11.881 142.178 0 162.706z" fill="#22d3ee" fill-rule="nonzero" stroke="none" stroke-width="1" stroke-linecap="butt" stroke-linejoin="miter" stroke-miterlimit="10" stroke-dasharray="" stroke-dashoffset="0" font-family="none" font-weight="none" font-size="none" text-anchor="none" style="mix-blend-mode: normal" data-fill-palette-color="tertiary"></path></g><g transform="matrix(1,0,0,1,48,114.78778999179656)"><svg viewBox="0 0 224 130.42442001640688" height="130.42442001640688" width="224"><g><svg viewBox="0 0 224 130.42442001640688" height="130.42442001640688" width="224"><g><svg viewBox="0 0 224 130.42442001640688" height="130.42442001640688" width="224"><g id="textblocktransform"><svg viewBox="0 0 224 130.42442001640688" height="130.42442001640688" width="224" id="textblock"><g><svg viewBox="0 0 224 130.42442001640688" height="130.42442001640688" width="224"><path d="M223.476 27.974C222.422 14.436 219.421 10.672 219.421 10.672 210.207-3.272 198.707-0.267 188.377 1.737 170.137 1.818 151.972 4.796 133.775 6.394 95.58 6.638 57.059 2.63 19.053 12.513 15.483 15.546-3.704 13.109 0.635 29.706 1.772 36.611 5.921 44.273 5.795 50.609 6.364 51.719 7.154 49.174 7.49 50.772 8.67 55.077 10.597 53.046 12.177 55.591 9.976 62.387 11.555 68.046 13.061 73.976 10.408 75.519 7.006 74.788 5.479 79.905 5.321 83.615 4.468 82.911 3.531 82.748 2.846 82.64 1.467 83.046 1.699 84.21 2.488 88.191-0.902 90.492 1.225 94.391-0.239 98.615 2.236 102.27 1.899 106.846 1.857 107.767 2.088 108.552 2.457 108.768 4.089 109.933 1.709 112.207 1.962 114.671 18.706 131.512 36.871 119.87 54.026 127.613 58.48 122.198 55.131 129.536 56.911 128.398 58.301 127.072 59.312 132.568 60.881 129.454 61.123 128.561 60.755 126.449 61.618 126.855 62.071 127.072 62.471 127.018 62.535 125.772 62.629 123.904 61.797 125.068 61.576 124.093 63.967 119.166 63.377 130.889 65.62 130.402 65.515 128.967 64.862 126.909 66.199 127.18 67.526 125.122 67.568 123.417 68.748 128.047 68.79 129.048 69 129.752 69.337 130.24 73.023 125.204 76.688 132.027 80.553 129.752 82.922 127.261 85.197 131.106 87.598 130.158 88.44 129.4 89.293 128.047 90.104 130.321 100.034 130.808 110.618 128.778 120.032 130.402 145.19 127.37 172.075 131.648 198.602 127.64 204.857 126.097 211.355 123.904 217.452 122.144 217.452 122.144 222.391 117.324 222.391 95.664S223.444 76.71 223.602 59.463C223.76 42.216 224.497 41.512 223.444 27.974Z" opacity="1" fill="#22d3ee" data-fill-palette-color="tertiary"></path><g transform="matrix(1,0,0,1,31.584000000000003,19.1)"><svg width="160.832" viewBox="2.15 -34.6 60.95 34.95" height="92.22442001640687" data-palette-color="#111827"><path d="M17.1-34.6L17.1-34.6Q23.05-34.6 27.25-32.15 31.45-29.7 31.45-26.95L31.45-26.95Q31.45-26.2 31.13-25.68 30.8-25.15 30.33-24.93 29.85-24.7 29.3-24.7L29.3-24.7Q28.4-24.7 26.6-25.63 24.8-26.55 22.6-27.48 20.4-28.4 18.55-28.4L18.55-28.4Q15.6-28.4 15.6-26L15.6-26Q15.6-25.25 16.07-24.58 16.55-23.9 17.6-23.18 18.65-22.45 19.65-21.9 20.65-21.35 22.4-20.43 24.15-19.5 25.35-18.8L25.35-18.8Q29.2-16.6 30.75-14.6 32.3-12.6 32.3-10L32.3-10Q32.3 0.35 18.35 0.35L18.35 0.35Q15.6 0.35 13.03-0.2 10.45-0.75 8.53-1.65 6.6-2.55 5.13-3.65 3.65-4.75 2.9-5.9 2.15-7.05 2.15-8.05L2.15-8.05Q2.15-9.15 2.88-9.93 3.6-10.7 5-10.7L5-10.7Q6.05-10.7 10.05-9.38 14.05-8.05 16.5-8.05L16.5-8.05Q18.75-8.05 18.75-9.6L18.75-9.6Q18.75-10.05 18.57-10.43 18.4-10.8 17.98-11.18 17.55-11.55 17.03-11.88 16.5-12.2 15.58-12.7 14.65-13.2 13.73-13.7 12.8-14.2 11.3-15 9.8-15.8 8.4-16.6L8.4-16.6Q6.55-17.65 5.23-19.2 3.9-20.75 3.3-22.28 2.7-23.8 2.7-25.1L2.7-25.1Q2.7-29.3 6.45-31.95 10.2-34.6 17.1-34.6ZM57.35 0L44.3 0Q42-0.05 40.6-0.73 39.2-1.4 38.5-2.95 37.8-4.5 37.8-7.1L37.8-7.1 37.8-28.25Q37.8-30.9 39.35-32.58 40.9-34.25 43.45-34.25L43.45-34.25Q46.45-34.25 47.87-33.15 49.3-32.05 49.3-28.7L49.3-28.7 49.3-8.65 57.85-8.65Q60.75-8.65 61.92-7.8 63.1-6.95 63.1-4.3L63.1-4.3Q63.1-1.6 61.75-0.8 60.4 0 57.35 0L57.35 0Z" opacity="1" transform="matrix(1,0,0,1,0,0)" fill="#111827" class="wordmark-text-0" data-fill-palette-color="quaternary" id="text-0"></path></svg></g></svg></g></svg></g></svg></g><g></g></svg></g></svg></g></svg></g><defs></defs></svg><rect width="320" height="360" fill="none" stroke="none" visibility="hidden"></rect></g></svg></g></svg>