<svg id="visual" viewBox="0 0 900 600" width="900" height="600" xmlns="http://www.w3.org/2000/svg" xmlns:xlink="http://www.w3.org/1999/xlink" version="1.1"><rect x="0" y="0" width="900" height="600" fill="#ffffff"></rect><defs><linearGradient id="grad1_0" x1="33.3%" y1="0%" x2="100%" y2="100%"><stop offset="20%" stop-color="#ffffff" stop-opacity="1"></stop><stop offset="80%" stop-color="#ffffff" stop-opacity="1"></stop></linearGradient></defs><defs><linearGradient id="grad2_0" x1="0%" y1="0%" x2="66.7%" y2="100%"><stop offset="20%" stop-color="#ffffff" stop-opacity="1"></stop><stop offset="80%" stop-color="#ffffff" stop-opacity="1"></stop></linearGradient></defs><g transform="translate(900, 0)"><path d="M0 405.6C-47.3 387.8 -94.7 370.1 -146.6 353.8C-198.5 337.6 -254.9 323 -286.8 286.8C-318.7 250.7 -326.1 193 -341.8 141.6C-357.5 90.2 -381.6 45.1 -405.6 0L0 0Z" fill="#457B9D"></path></g><g transform="translate(0, 600)"><path d="M0 -405.6C47.7 -388 95.4 -370.4 146.6 -353.8C197.7 -337.3 252.4 -321.9 286.8 -286.8C321.3 -251.7 335.6 -196.9 352 -145.8C368.4 -94.7 387 -47.4 405.6 0L0 0Z" fill="#457B9D"></path></g></svg>