<svg id="visual" viewBox="0 0 900 600" width="900" height="600" xmlns="http://www.w3.org/2000/svg" xmlns:xlink="http://www.w3.org/1999/xlink" version="1.1"><rect x="0" y="0" width="900" height="600" fill="#001220"></rect><defs><linearGradient id="grad1_0" x1="33.3%" y1="0%" x2="100%" y2="100%"><stop offset="20%" stop-color="#001220" stop-opacity="1"></stop><stop offset="80%" stop-color="#001220" stop-opacity="1"></stop></linearGradient></defs><defs><linearGradient id="grad2_0" x1="0%" y1="0%" x2="66.7%" y2="100%"><stop offset="20%" stop-color="#001220" stop-opacity="1"></stop><stop offset="80%" stop-color="#001220" stop-opacity="1"></stop></linearGradient></defs><g transform="translate(900, 0)"><path d="M0 486.7C-61.7 463 -123.5 439.2 -167.2 403.7C-211 368.3 -236.8 321.2 -287.1 287.1C-337.4 253 -412.3 231.9 -449.7 186.3C-487.1 140.6 -486.9 70.3 -486.7 0L0 0Z" fill="#457B9D"></path></g><g transform="translate(0, 600)"><path d="M0 -486.7C66.1 -476.3 132.2 -465.8 179.1 -432.4C226 -398.9 253.9 -342.5 301.2 -301.2C348.6 -260 415.5 -233.9 449.7 -186.3C483.9 -138.6 485.3 -69.3 486.7 0L0 0Z" fill="#457B9D"></path></g></svg>