<svg id="visual" viewBox="0 0 900 600" width="900" height="600" xmlns="http://www.w3.org/2000/svg" xmlns:xlink="http://www.w3.org/1999/xlink" version="1.1"><rect width="900" height="600" fill="#F1FAEE"></rect><g><g transform="translate(842 335)"><path d="M43.8 -30C59.2 -15.6 75.7 2.7 76.9 25.6C78.1 48.5 63.9 75.9 39.1 91.9C14.3 108 -21.2 112.8 -40.9 98.2C-60.6 83.6 -64.5 49.6 -70.6 17.6C-76.7 -14.4 -85 -44.3 -73.6 -57.8C-62.1 -71.3 -31.1 -68.2 -8.4 -61.5C14.2 -54.8 28.4 -44.4 43.8 -30Z" fill="#457B9D"></path></g><g transform="translate(20 245)"><path d="M67 -48.5C85.9 -29.7 99.6 -1.9 92.4 17.6C85.2 37.1 56.9 48.2 29.4 61.7C2 75.1 -24.7 90.9 -45.3 84.6C-66 78.3 -80.6 50 -85.3 21.7C-90 -6.6 -84.6 -34.9 -68.7 -53C-52.9 -71.2 -26.4 -79.1 -1.2 -78.2C24 -77.2 48.1 -67.4 67 -48.5Z" fill="#457B9D"></path></g><g transform="translate(506 265)"><path d="M43.7 -34.5C59.5 -15 77.2 3.3 76.9 22.7C76.5 42 58.2 62.3 38.1 67.4C18.1 72.6 -3.6 62.5 -25.7 52.3C-47.9 42.1 -70.5 31.7 -75.3 15.7C-80.2 -0.3 -67.2 -21.8 -51.7 -41.2C-36.2 -60.6 -18.1 -78 -2.1 -76.3C13.9 -74.6 27.8 -54 43.7 -34.5Z" fill="#457B9D"></path></g><g transform="translate(222 560)"><path d="M58 -41C72.1 -28.5 78.5 -4.6 74.4 18.5C70.4 41.6 55.9 63.9 32.2 80.6C8.5 97.4 -24.6 108.5 -52.8 99C-81.1 89.5 -104.5 59.4 -106.8 29.9C-109.1 0.4 -90.3 -28.3 -69 -42.4C-47.7 -56.6 -23.9 -56.1 -1 -55.3C21.9 -54.5 43.9 -53.5 58 -41Z" fill="#457B9D"></path></g><g transform="translate(702 43)"><path d="M65.7 -52.8C80.6 -33.8 84.8 -6.7 76.5 12.6C68.2 31.9 47.3 43.4 27.9 49.5C8.5 55.7 -9.5 56.4 -23.9 49.5C-38.2 42.6 -48.9 28.1 -61 5.3C-73.1 -17.5 -86.6 -48.6 -76.6 -66.5C-66.7 -84.4 -33.3 -89.1 -4 -85.9C25.4 -82.8 50.9 -71.8 65.7 -52.8Z" fill="#457B9D"></path></g><g transform="translate(307 36)"><path d="M51.3 -29.8C73.5 -13 103.5 8.7 104.5 31.8C105.6 54.8 77.7 79.2 46.5 92.8C15.3 106.4 -19.3 109.2 -37.3 94.2C-55.4 79.1 -56.8 46.2 -56.6 20.5C-56.5 -5.3 -54.8 -23.8 -45.1 -37.7C-35.4 -51.6 -17.7 -60.8 -1.6 -59.6C14.5 -58.3 29.1 -46.5 51.3 -29.8Z" fill="#457B9D"></path></g><g transform="translate(627 531)"><path d="M83 -72.9C96.9 -48.9 89.9 -15 81.4 17.2C73 49.3 63 79.7 41.2 93C19.5 106.3 -14 102.6 -39.1 87.9C-64.2 73.3 -80.8 47.8 -82.3 23.8C-83.8 -0.2 -70.3 -22.7 -54 -47.3C-37.8 -71.8 -18.9 -98.4 7.9 -104.7C34.6 -111 69.2 -96.9 83 -72.9Z" fill="#457B9D"></path></g></g></svg>